<svg xmlns="http://www.w3.org/2000/svg" xmlns:xlink="http://www.w3.org/1999/xlink" width="300" zoomAndPan="magnify" viewBox="0 0 224.87999 74.999997" height="100" preserveAspectRatio="xMidYMid meet" version="1.0"><defs><g/><clipPath id="5034b0d5cf"><path d="M 9.046875 13 L 35 13 L 35 36.175781 L 9.046875 36.175781 Z M 9.046875 13 " clip-rule="nonzero"/></clipPath><clipPath id="8dd82d8cbf"><path d="M 10.082031 15 L 36 15 L 36 38.0625 L 10.082031 38.0625 Z M 10.082031 15 " clip-rule="nonzero"/></clipPath><clipPath id="3a0c9f6b4d"><path d="M 10.082031 14.824219 L 36.316406 14.824219 L 36.316406 38.0625 L 10.082031 38.0625 Z M 10.082031 14.824219 " clip-rule="nonzero"/></clipPath><clipPath id="8902584257"><path d="M 9.660156 14.015625 L 35.894531 14.015625 L 35.894531 37.253906 L 9.660156 37.253906 Z M 9.660156 14.015625 " clip-rule="nonzero"/></clipPath><clipPath id="253a4a5b26"><path d="M 36.140625 16.257812 L 57.878906 16.257812 L 57.878906 38.746094 L 36.140625 38.746094 Z M 36.140625 16.257812 " clip-rule="nonzero"/></clipPath><clipPath id="034ec4887f"><path d="M 36.140625 18.347656 L 57.878906 18.347656 L 57.878906 40.835938 L 36.140625 40.835938 Z M 36.140625 18.347656 " clip-rule="nonzero"/></clipPath><clipPath id="9163714495"><path d="M 36.140625 17.421875 L 57.878906 17.421875 L 57.878906 39.910156 L 36.140625 39.910156 Z M 36.140625 17.421875 " clip-rule="nonzero"/></clipPath><clipPath id="c94d875dfe"><path d="M 32.59375 41.273438 L 52.832031 41.273438 L 52.832031 60.765625 L 32.59375 60.765625 Z M 32.59375 41.273438 " clip-rule="nonzero"/></clipPath><clipPath id="a98db1494b"><path d="M 31 40.046875 L 50.953125 40.046875 L 50.953125 59.535156 L 31 59.535156 Z M 31 40.046875 " clip-rule="nonzero"/></clipPath><clipPath id="e8d8e47385"><path d="M 32 40.765625 L 51.988281 40.765625 L 51.988281 60.253906 L 32 60.253906 Z M 32 40.765625 " clip-rule="nonzero"/></clipPath><clipPath id="e544e759f9"><path d="M 7.796875 39.660156 L 28.785156 39.660156 L 28.785156 59.148438 L 7.796875 59.148438 Z M 7.796875 39.660156 " clip-rule="nonzero"/></clipPath><clipPath id="a040c0177d"><path d="M 9.800781 40.433594 L 30.789062 40.433594 L 30.789062 59.921875 L 9.800781 59.921875 Z M 9.800781 40.433594 " clip-rule="nonzero"/></clipPath><clipPath id="074595eed8"><path d="M 9.058594 39.773438 L 30 39.773438 L 30 59.265625 L 9.058594 59.265625 Z M 9.058594 39.773438 " clip-rule="nonzero"/></clipPath><clipPath id="c75da9723a"><path d="M 42.351562 23.710938 L 52.097656 23.710938 L 52.097656 33.457031 L 42.351562 33.457031 Z M 42.351562 23.710938 " clip-rule="nonzero"/></clipPath><clipPath id="a130f6ae94"><path d="M 43.847656 23.710938 L 50.832031 23.710938 C 51.660156 23.710938 52.332031 24.382812 52.332031 25.207031 L 52.332031 32.191406 C 52.332031 33.019531 51.660156 33.691406 50.832031 33.691406 L 43.847656 33.691406 C 43.023438 33.691406 42.351562 33.019531 42.351562 32.191406 L 42.351562 25.207031 C 42.351562 24.382812 43.023438 23.710938 43.847656 23.710938 Z M 43.847656 23.710938 " clip-rule="nonzero"/></clipPath><clipPath id="d11e9acc31"><path d="M 13.066406 42.484375 L 25.8125 42.484375 L 25.8125 53.726562 L 13.066406 53.726562 Z M 13.066406 42.484375 " clip-rule="nonzero"/></clipPath><clipPath id="9cb91d7463"><path d="M 19.511719 42.484375 L 25.953125 53.757812 L 13.066406 53.757812 Z M 19.511719 42.484375 " clip-rule="nonzero"/></clipPath><clipPath id="6f8722e960"><path d="M 36.605469 45.257812 L 47.476562 45.257812 L 47.476562 56.128906 L 36.605469 56.128906 Z M 36.605469 45.257812 " clip-rule="nonzero"/></clipPath><clipPath id="376f04e40d"><path d="M 42.039062 45.257812 C 39.039062 45.257812 36.605469 47.691406 36.605469 50.695312 C 36.605469 53.695312 39.039062 56.128906 42.039062 56.128906 C 45.042969 56.128906 47.476562 53.695312 47.476562 50.695312 C 47.476562 47.691406 45.042969 45.257812 42.039062 45.257812 Z M 42.039062 45.257812 " clip-rule="nonzero"/></clipPath><clipPath id="743ef0071c"><path d="M 0 0.0195312 L 23 0.0195312 L 23 44 L 0 44 Z M 0 0.0195312 " clip-rule="nonzero"/></clipPath><clipPath id="cc1e001970"><path d="M 0 0.0195312 L 31 0.0195312 L 31 31 L 0 31 Z M 0 0.0195312 " clip-rule="nonzero"/></clipPath><clipPath id="2a613e59f7"><path d="M 40 34 L 76 34 L 76 74.980469 L 40 74.980469 Z M 40 34 " clip-rule="nonzero"/></clipPath><clipPath id="5d7694488c"><path d="M 28 46 L 75 46 L 75 74.980469 L 28 74.980469 Z M 28 46 " clip-rule="nonzero"/></clipPath></defs><g clip-path="url(#5034b0d5cf)"><path stroke-linecap="butt" transform="matrix(0.0349622, 0, 0, 0.0349622, 8.306659, 10.555375)" fill-opacity="1" fill="#00ffff" fill-rule="nonzero" stroke-linejoin="miter" d="M 333.451506 75.396704 C 266.414744 82.435564 201.724268 110.814461 151.111512 155.393908 C 79.71736 218.185009 38.378023 310.807469 27.205229 405.217577 C 21.507104 452.925406 23.294751 501.973971 37.037287 547.894153 C 50.891552 593.926064 77.371073 636.717864 115.582028 665.878855 C 148.541769 691.017641 188.875555 705.095362 229.656252 713.139773 C 270.325222 721.184185 311.999742 723.418743 353.339079 727.329221 C 392.555585 730.904515 431.772092 736.044 471.212054 735.485361 C 510.652016 735.038449 550.650617 728.669956 585.73319 710.570031 C 636.457674 684.425693 672.210614 636.38268 699.919142 586.440292 C 726.733847 537.950367 747.7387 485.77342 756.788663 431.02673 C 765.726898 376.391769 762.151604 318.963609 741.481935 267.568757 C 714.332046 200.085083 656.345247 144.779754 562.940691 113.607659 C 469.647862 82.323836 400.488269 68.246116 333.451506 75.396704 Z M 333.451506 75.396704 " stroke="#000000" stroke-width="0.299" stroke-opacity="1" stroke-miterlimit="4"/></g><g clip-path="url(#8dd82d8cbf)"><path fill="#fc128d" d="M 21 15.078125 C 18.65625 15.328125 16.394531 16.320312 14.625 17.878906 C 12.128906 20.074219 10.683594 23.3125 10.292969 26.613281 C 10.097656 28.28125 10.15625 29.992188 10.636719 31.601562 C 11.121094 33.207031 12.046875 34.707031 13.382812 35.722656 C 14.535156 36.605469 15.945312 37.097656 17.371094 37.378906 C 18.796875 37.65625 20.25 37.738281 21.695312 37.871094 C 23.066406 38 24.441406 38.175781 25.816406 38.160156 C 27.195312 38.140625 28.597656 37.917969 29.820312 37.289062 C 31.59375 36.375 32.84375 34.691406 33.8125 32.949219 C 34.75 31.253906 35.488281 29.429688 35.800781 27.515625 C 36.113281 25.601562 35.992188 23.597656 35.265625 21.796875 C 34.316406 19.4375 32.289062 17.507812 29.027344 16.414062 C 25.761719 15.324219 23.34375 14.828125 21 15.078125 Z M 21 15.078125 " fill-opacity="1" fill-rule="nonzero"/></g><g clip-path="url(#3a0c9f6b4d)"><path stroke-linecap="butt" transform="matrix(0.0349622, 0, 0, 0.0349622, 9.342643, 12.444524)" fill="none" stroke-linejoin="miter" d="M 333.427822 75.327188 C 266.39106 82.477776 201.700584 110.856672 151.087828 155.436119 C 79.693676 218.22722 38.354339 310.849681 27.181545 405.259788 C 21.595148 452.967618 23.271067 501.904454 37.013604 547.936365 C 50.867868 593.856547 77.347389 636.760075 115.558344 665.809339 C 148.518085 691.059853 188.851871 705.137573 229.632568 713.181985 C 270.413266 721.114668 311.976058 723.460955 353.315395 727.259705 C 392.531902 730.946727 431.860136 735.974484 471.18837 735.527572 C 510.628332 734.968933 550.738661 728.60044 585.709506 710.612242 C 636.43399 684.467905 672.18693 636.313163 699.895458 586.482503 C 726.710163 537.992578 747.826744 485.815631 756.764979 431.068942 C 765.703214 376.322252 762.239648 319.00582 741.458251 267.499241 C 714.308362 200.015566 656.321563 144.821965 563.028735 113.538143 C 469.624179 82.366048 400.464585 68.1766 333.427822 75.327188 Z M 333.427822 75.327188 " stroke="#000000" stroke-width="0.299" stroke-opacity="1" stroke-miterlimit="4"/></g><g clip-path="url(#8902584257)"><path stroke-linecap="butt" transform="matrix(0.0349622, 0, 0, 0.0349622, 8.921378, 11.635721)" fill-opacity="1" fill="#292f33" fill-rule="nonzero" stroke-linejoin="miter" d="M 333.410371 75.333172 C 266.373608 82.48376 201.79486 110.862657 151.070376 155.442104 C 79.787952 218.233205 38.336887 310.855665 27.164093 405.265773 C 21.577696 452.861874 23.253615 501.910439 37.10788 547.942349 C 50.850416 593.862532 77.441665 636.76606 115.540892 665.815323 C 148.612362 691.065837 188.834419 705.143558 229.615117 713.187969 C 270.395814 721.120653 311.958607 723.466939 353.297944 727.265689 C 392.626178 730.952711 431.842684 735.980468 471.282646 735.533557 C 510.61088 734.974917 550.72121 728.606425 585.692054 710.618227 C 636.416538 684.473889 672.169478 636.319148 699.878007 586.488488 C 726.692712 537.998563 747.809292 485.821616 756.747527 431.074926 C 765.685762 376.328237 762.222196 319.011805 741.552527 267.505225 C 714.402638 200.021551 656.304111 144.716222 563.011283 113.544127 C 469.606727 82.372032 400.447133 68.182584 333.410371 75.333172 Z M 333.410371 75.333172 " stroke="#000000" stroke-width="0.299" stroke-opacity="1" stroke-miterlimit="4"/></g><g clip-path="url(#253a4a5b26)"><path fill="#00ffff" d="M 54.34375 17.4375 C 56.027344 18.535156 57.046875 20.644531 57.523438 22.710938 C 58 24.765625 57.933594 26.78125 57.617188 28.730469 C 57.3125 30.691406 56.769531 32.585938 55.667969 34.230469 C 54.566406 35.871094 52.9375 37.265625 51.003906 37.992188 C 49.054688 38.734375 46.828125 38.816406 44.917969 38.113281 C 43.023438 37.398438 41.445312 35.898438 40 34.253906 C 38.558594 32.625 37.230469 30.863281 36.714844 28.835938 C 36.183594 26.808594 36.449219 24.515625 37.378906 22.539062 C 38.304688 20.5625 39.894531 18.90625 41.777344 17.898438 C 43.644531 16.894531 45.820312 16.535156 48.074219 16.402344 C 50.328125 16.257812 52.660156 16.347656 54.34375 17.4375 Z M 54.34375 17.4375 " fill-opacity="1" fill-rule="nonzero"/></g><g clip-path="url(#034ec4887f)"><path fill="#fc128d" d="M 54.34375 19.527344 C 56.027344 20.628906 57.046875 22.734375 57.523438 24.804688 C 58 26.859375 57.933594 28.871094 57.617188 30.820312 C 57.3125 32.78125 56.769531 34.675781 55.667969 36.320312 C 54.566406 37.964844 52.9375 39.355469 51.003906 40.085938 C 49.054688 40.828125 46.828125 40.90625 44.917969 40.203125 C 43.023438 39.488281 41.445312 37.992188 40 36.347656 C 38.558594 34.71875 37.230469 32.953125 36.714844 30.925781 C 36.183594 28.898438 36.449219 26.605469 37.378906 24.628906 C 38.304688 22.65625 39.894531 21 41.777344 19.992188 C 43.644531 18.984375 45.820312 18.625 48.074219 18.496094 C 50.328125 18.347656 52.660156 18.441406 54.34375 19.527344 Z M 54.34375 19.527344 " fill-opacity="1" fill-rule="nonzero"/></g><g clip-path="url(#9163714495)"><path fill="#292f33" d="M 54.34375 18.601562 C 56.027344 19.703125 57.046875 21.808594 57.523438 23.875 C 58 25.929688 57.933594 27.945312 57.617188 29.894531 C 57.3125 31.855469 56.769531 33.75 55.667969 35.394531 C 54.566406 37.039062 52.9375 38.429688 51.003906 39.160156 C 49.054688 39.902344 46.828125 39.980469 44.917969 39.277344 C 43.023438 38.5625 41.445312 37.0625 40 35.421875 C 38.558594 33.789062 37.230469 32.027344 36.714844 30 C 36.183594 27.972656 36.449219 25.679688 37.378906 23.703125 C 38.304688 21.730469 39.894531 20.074219 41.777344 19.066406 C 43.644531 18.058594 45.820312 17.699219 48.074219 17.566406 C 50.328125 17.421875 52.660156 17.515625 54.34375 18.601562 Z M 54.34375 18.601562 " fill-opacity="1" fill-rule="nonzero"/></g><g clip-path="url(#c94d875dfe)"><path fill="#fc128d" d="M 48.363281 42.574219 C 50.027344 43.753906 50.949219 45.976562 51.742188 48.261719 C 52.519531 50.5625 53.15625 52.925781 52.675781 55.082031 C 52.183594 57.238281 50.558594 59.1875 48.582031 59.992188 C 46.597656 60.8125 44.257812 60.5 42.011719 60.355469 C 39.765625 60.226562 37.621094 60.253906 36.203125 59.25 C 34.789062 58.25 34.101562 56.226562 33.566406 54.226562 C 33.023438 52.222656 32.621094 50.25 33.074219 48.484375 C 33.542969 46.703125 34.855469 45.121094 36.476562 43.9375 C 38.089844 42.742188 39.996094 41.949219 42.152344 41.613281 C 44.308594 41.273438 46.699219 41.402344 48.363281 42.574219 Z M 48.363281 42.574219 " fill-opacity="1" fill-rule="nonzero"/></g><g clip-path="url(#a98db1494b)"><path fill="#00ffff" d="M 46.484375 41.347656 C 48.148438 42.527344 49.070312 44.75 49.863281 47.035156 C 50.640625 49.335938 51.277344 51.699219 50.796875 53.855469 C 50.304688 56.011719 48.679688 57.960938 46.703125 58.765625 C 44.71875 59.582031 42.378906 59.269531 40.132812 59.128906 C 37.886719 59 35.742188 59.023438 34.324219 58.023438 C 32.910156 57.023438 32.222656 54.996094 31.6875 52.996094 C 31.144531 50.996094 30.742188 49.023438 31.195312 47.257812 C 31.664062 45.476562 32.976562 43.890625 34.597656 42.710938 C 36.210938 41.515625 38.117188 40.722656 40.273438 40.382812 C 42.429688 40.046875 44.820312 40.175781 46.484375 41.347656 Z M 46.484375 41.347656 " fill-opacity="1" fill-rule="nonzero"/></g><g clip-path="url(#e8d8e47385)"><path fill="#292f33" d="M 47.519531 42.0625 C 49.179688 43.246094 50.101562 45.464844 50.894531 47.753906 C 51.675781 50.050781 52.3125 52.414062 51.832031 54.570312 C 51.335938 56.726562 49.714844 58.675781 47.738281 59.480469 C 45.75 60.300781 43.414062 59.988281 41.167969 59.847656 C 38.917969 59.714844 36.777344 59.742188 35.359375 58.742188 C 33.945312 57.742188 33.253906 55.714844 32.722656 53.714844 C 32.175781 51.714844 31.773438 49.738281 32.230469 47.972656 C 32.695312 46.195312 34.007812 44.609375 35.632812 43.425781 C 37.242188 42.230469 39.152344 41.4375 41.308594 41.101562 C 43.464844 40.765625 45.855469 40.894531 47.519531 42.0625 Z M 47.519531 42.0625 " fill-opacity="1" fill-rule="nonzero"/></g><g clip-path="url(#e544e759f9)"><path fill="#00ffff" d="M 11.46875 56.339844 C 9.988281 55.34375 8.660156 53.988281 8.152344 52.277344 C 7.804688 51.097656 7.867188 49.828125 8.152344 48.632812 C 8.574219 46.84375 9.480469 45.175781 10.710938 43.808594 C 11.945312 42.445312 13.5 41.378906 15.195312 40.675781 C 16.6875 40.054688 18.3125 39.710938 19.921875 39.847656 C 20.476562 39.894531 21.027344 40 21.578125 40.09375 C 22.203125 40.207031 22.835938 40.308594 23.445312 40.488281 C 24.054688 40.671875 24.648438 40.933594 25.140625 41.339844 C 25.730469 41.824219 26.148438 42.488281 26.46875 43.179688 C 26.789062 43.875 27.015625 44.605469 27.296875 45.316406 C 27.59375 46.074219 27.945312 46.808594 28.226562 47.574219 C 28.503906 48.339844 28.714844 49.144531 28.703125 49.957031 C 28.695312 50.863281 28.417969 51.75 28.015625 52.5625 C 27.609375 53.371094 27.085938 54.117188 26.550781 54.847656 C 26 55.597656 25.4375 56.34375 24.777344 57.003906 C 24.117188 57.660156 23.355469 58.230469 22.488281 58.574219 C 21.082031 59.136719 19.507812 59.066406 18.015625 58.824219 C 15.691406 58.445312 13.421875 57.648438 11.46875 56.339844 Z M 11.46875 56.339844 " fill-opacity="1" fill-rule="nonzero"/></g><g clip-path="url(#a040c0177d)"><path fill="#fc128d" d="M 13.472656 57.109375 C 11.992188 56.117188 10.664062 54.757812 10.15625 53.050781 C 9.808594 51.871094 9.875 50.601562 10.15625 49.402344 C 10.582031 47.613281 11.484375 45.949219 12.71875 44.582031 C 13.949219 43.21875 15.503906 42.152344 17.199219 41.449219 C 18.691406 40.828125 20.316406 40.484375 21.925781 40.617188 C 22.480469 40.667969 23.03125 40.769531 23.582031 40.867188 C 24.207031 40.976562 24.839844 41.082031 25.449219 41.261719 C 26.058594 41.441406 26.652344 41.707031 27.144531 42.109375 C 27.734375 42.59375 28.152344 43.257812 28.472656 43.953125 C 28.792969 44.648438 29.023438 45.378906 29.300781 46.089844 C 29.597656 46.847656 29.949219 47.582031 30.230469 48.347656 C 30.507812 49.113281 30.71875 49.914062 30.707031 50.730469 C 30.699219 51.636719 30.421875 52.523438 30.019531 53.332031 C 29.613281 54.144531 29.089844 54.886719 28.554688 55.617188 C 28.003906 56.371094 27.441406 57.117188 26.78125 57.773438 C 26.121094 58.433594 25.359375 59.003906 24.492188 59.347656 C 23.089844 59.910156 21.511719 59.839844 20.019531 59.597656 C 17.695312 59.21875 15.425781 58.421875 13.472656 57.109375 Z M 13.472656 57.109375 " fill-opacity="1" fill-rule="nonzero"/></g><g clip-path="url(#074595eed8)"><path fill="#292f33" d="M 12.730469 56.453125 C 11.25 55.457031 9.921875 54.101562 9.414062 52.390625 C 9.066406 51.214844 9.132812 49.941406 9.414062 48.746094 C 9.839844 46.957031 10.742188 45.289062 11.976562 43.925781 C 13.207031 42.558594 14.761719 41.496094 16.460938 40.789062 C 17.949219 40.171875 19.574219 39.824219 21.183594 39.960938 C 21.738281 40.007812 22.289062 40.113281 22.839844 40.210938 C 23.46875 40.320312 24.097656 40.421875 24.707031 40.605469 C 25.316406 40.785156 25.910156 41.046875 26.402344 41.453125 C 26.992188 41.9375 27.414062 42.601562 27.730469 43.292969 C 28.050781 43.988281 28.28125 44.71875 28.558594 45.429688 C 28.855469 46.1875 29.207031 46.925781 29.488281 47.691406 C 29.769531 48.453125 29.976562 49.257812 29.96875 50.070312 C 29.957031 50.976562 29.679688 51.863281 29.277344 52.675781 C 28.875 53.488281 28.347656 54.230469 27.8125 54.960938 C 27.261719 55.710938 26.699219 56.460938 26.039062 57.117188 C 25.378906 57.773438 24.617188 58.34375 23.75 58.691406 C 22.347656 59.25 20.769531 59.183594 19.277344 58.9375 C 16.953125 58.558594 14.683594 57.765625 12.730469 56.453125 Z M 12.730469 56.453125 " fill-opacity="1" fill-rule="nonzero"/></g><g clip-path="url(#c75da9723a)"><g clip-path="url(#a130f6ae94)"><path stroke-linecap="butt" transform="matrix(0.7496, 0, 0, 0.7496, 42.351785, 23.710853)" fill="none" stroke-linejoin="miter" d="M 1.99556 0.000113339 L 11.31303 0.000113339 C 12.417786 0.000113339 13.314097 0.896425 13.314097 1.99597 L 13.314097 11.31344 C 13.314097 12.418196 12.417786 13.314507 11.31303 13.314507 L 1.99556 13.314507 C 0.896015 13.314507 -0.000296396 12.418196 -0.000296396 11.31344 L -0.000296396 1.99597 C -0.000296396 0.896425 0.896015 0.000113339 1.99556 0.000113339 Z M 1.99556 0.000113339 " stroke="#ffffff" stroke-width="6" stroke-opacity="1" stroke-miterlimit="4"/></g></g><g clip-path="url(#d11e9acc31)"><g clip-path="url(#9cb91d7463)"><path stroke-linecap="butt" transform="matrix(0.7496, 0, 0, 0.7496, 13.068052, 42.486299)" fill="none" stroke-linejoin="miter" d="M 8.59614 -0.00256634 L 17.189266 15.036706 L -0.00219615 15.036706 Z M 8.59614 -0.00256634 " stroke="#ffffff" stroke-width="6" stroke-opacity="1" stroke-miterlimit="4"/></g></g><g clip-path="url(#6f8722e960)"><g clip-path="url(#376f04e40d)"><path stroke-linecap="butt" transform="matrix(0.7496, 0, 0, 0.7496, 36.60571, 45.258801)" fill="none" stroke-linejoin="miter" d="M 7.248336 -0.00131928 C 3.246202 -0.00131928 -0.000321761 3.245204 -0.000321761 7.25255 C -0.000321761 11.254685 3.246202 14.501208 7.248336 14.501208 C 11.255682 14.501208 14.502206 11.254685 14.502206 7.25255 C 14.502206 3.245204 11.255682 -0.00131928 7.248336 -0.00131928 Z M 7.248336 -0.00131928 " stroke="#ffffff" stroke-width="6" stroke-opacity="1" stroke-miterlimit="4"/></g></g><path stroke-linecap="round" transform="matrix(0.56807, -0.489077, 0.489077, 0.56807, 16.401221, 29.933361)" fill="none" stroke-linejoin="miter" d="M 0.999202 0.998194 L 18.669289 1.000668 " stroke="#ffffff" stroke-width="2" stroke-opacity="1" stroke-miterlimit="4"/><path stroke-linecap="round" transform="matrix(0.533499, 0.526573, -0.526573, 0.533499, 18.74849, 20.965095)" fill="none" stroke-linejoin="miter" d="M 0.996946 0.999772 L 14.947929 1.002479 " stroke="#ffffff" stroke-width="2" stroke-opacity="1" stroke-miterlimit="4"/><g fill="#ff00ff" fill-opacity="1"><g transform="translate(68.324987, 42.012835)"><g><path d="M 12.25 -15.164062 L 0.582031 -15.164062 L 0.582031 -11.664062 L 4.082031 -11.664062 L 4.082031 1.167969 L 8.75 0 L 8.75 -11.664062 L 12.25 -11.664062 Z M 12.25 -15.164062 "/></g></g></g><g fill="#ff00ff" fill-opacity="1"><g transform="translate(82.800728, 42.012835)"><g><path d="M 12.25 -11.664062 L 12.25 -15.164062 L 0.582031 -15.164062 L 0.582031 0 L 12.25 0 L 12.25 -3.5 L 5.25 -3.5 L 5.25 -11.664062 Z M 12.25 -5.832031 L 12.25 -9.332031 L 6.414062 -9.332031 L 6.414062 -5.832031 Z M 12.25 -5.832031 "/></g></g></g><g fill="#ff00ff" fill-opacity="1"><g transform="translate(97.276469, 42.012835)"><g><path d="M 12.25 -10.5 L 12.25 -15.164062 L 0.582031 -15.164062 L 0.582031 0 L 12.25 0 L 12.25 -5.832031 L 7.582031 -4.664062 L 7.582031 -3.5 L 5.25 -3.5 L 5.25 -11.664062 L 7.582031 -11.664062 L 7.582031 -9.332031 Z M 12.25 -10.5 "/></g></g></g><g fill="#ff00ff" fill-opacity="1"><g transform="translate(111.752211, 42.012835)"><g><path d="M 7.582031 0 L 12.25 0 L 12.25 -15.164062 L 7.582031 -15.164062 L 7.582031 -9.332031 L 5.25 -9.332031 L 5.25 -15.164062 L 0.582031 -15.164062 L 0.582031 0 L 5.25 0 L 5.25 -5.832031 L 7.582031 -5.832031 Z M 7.582031 0 "/></g></g></g><g fill="#ff00ff" fill-opacity="1"><g transform="translate(126.227951, 42.012835)"><g><path d="M 0.582031 0 L 5.25 0 L 5.25 -11.664062 L 7.582031 -11.664062 L 7.582031 1.167969 L 12.25 0 L 12.25 -15.164062 L 0.582031 -15.164062 Z M 0.582031 0 "/></g></g></g><g fill="#ff00ff" fill-opacity="1"><g transform="translate(140.70369, 42.012835)"><g><path d="M 12.25 -15.164062 L 0.582031 -15.164062 L 0.582031 0 L 12.25 0 Z M 7.582031 -11.664062 L 7.582031 -3.5 L 5.25 -3.5 L 5.25 -11.664062 Z M 7.582031 -11.664062 "/></g></g></g><g fill="#ff00ff" fill-opacity="1"><g transform="translate(155.17943, 42.012835)"><g/></g></g><g fill="#00ffff" fill-opacity="1"><g transform="translate(67.370639, 41.024574)"><g><path d="M 12.25 -15.164062 L 0.582031 -15.164062 L 0.582031 -11.664062 L 4.082031 -11.664062 L 4.082031 1.167969 L 8.75 0 L 8.75 -11.664062 L 12.25 -11.664062 Z M 12.25 -15.164062 "/></g></g></g><g fill="#00ffff" fill-opacity="1"><g transform="translate(81.84638, 41.024574)"><g><path d="M 12.25 -11.664062 L 12.25 -15.164062 L 0.582031 -15.164062 L 0.582031 0 L 12.25 0 L 12.25 -3.5 L 5.25 -3.5 L 5.25 -11.664062 Z M 12.25 -5.832031 L 12.25 -9.332031 L 6.414062 -9.332031 L 6.414062 -5.832031 Z M 12.25 -5.832031 "/></g></g></g><g fill="#00ffff" fill-opacity="1"><g transform="translate(96.322121, 41.024574)"><g><path d="M 12.25 -10.5 L 12.25 -15.164062 L 0.582031 -15.164062 L 0.582031 0 L 12.25 0 L 12.25 -5.832031 L 7.582031 -4.664062 L 7.582031 -3.5 L 5.25 -3.5 L 5.25 -11.664062 L 7.582031 -11.664062 L 7.582031 -9.332031 Z M 12.25 -10.5 "/></g></g></g><g fill="#00ffff" fill-opacity="1"><g transform="translate(110.797864, 41.024574)"><g><path d="M 7.582031 0 L 12.25 0 L 12.25 -15.164062 L 7.582031 -15.164062 L 7.582031 -9.332031 L 5.25 -9.332031 L 5.25 -15.164062 L 0.582031 -15.164062 L 0.582031 0 L 5.25 0 L 5.25 -5.832031 L 7.582031 -5.832031 Z M 7.582031 0 "/></g></g></g><g fill="#00ffff" fill-opacity="1"><g transform="translate(125.273603, 41.024574)"><g><path d="M 0.582031 0 L 5.25 0 L 5.25 -11.664062 L 7.582031 -11.664062 L 7.582031 1.167969 L 12.25 0 L 12.25 -15.164062 L 0.582031 -15.164062 Z M 0.582031 0 "/></g></g></g><g fill="#00ffff" fill-opacity="1"><g transform="translate(139.749343, 41.024574)"><g><path d="M 12.25 -15.164062 L 0.582031 -15.164062 L 0.582031 0 L 12.25 0 Z M 7.582031 -11.664062 L 7.582031 -3.5 L 5.25 -3.5 L 5.25 -11.664062 Z M 7.582031 -11.664062 "/></g></g></g><g fill="#00ffff" fill-opacity="1"><g transform="translate(154.225082, 41.024574)"><g/></g></g><g fill="#ffffff" fill-opacity="1"><g transform="translate(67.847812, 41.518704)"><g><path d="M 12.25 -15.164062 L 0.582031 -15.164062 L 0.582031 -11.664062 L 4.082031 -11.664062 L 4.082031 1.167969 L 8.75 0 L 8.75 -11.664062 L 12.25 -11.664062 Z M 12.25 -15.164062 "/></g></g></g><g fill="#ffffff" fill-opacity="1"><g transform="translate(82.323553, 41.518704)"><g><path d="M 12.25 -11.664062 L 12.25 -15.164062 L 0.582031 -15.164062 L 0.582031 0 L 12.25 0 L 12.25 -3.5 L 5.25 -3.5 L 5.25 -11.664062 Z M 12.25 -5.832031 L 12.25 -9.332031 L 6.414062 -9.332031 L 6.414062 -5.832031 Z M 12.25 -5.832031 "/></g></g></g><g fill="#ffffff" fill-opacity="1"><g transform="translate(96.799294, 41.518704)"><g><path d="M 12.25 -10.5 L 12.25 -15.164062 L 0.582031 -15.164062 L 0.582031 0 L 12.25 0 L 12.25 -5.832031 L 7.582031 -4.664062 L 7.582031 -3.5 L 5.25 -3.5 L 5.25 -11.664062 L 7.582031 -11.664062 L 7.582031 -9.332031 Z M 12.25 -10.5 "/></g></g></g><g fill="#ffffff" fill-opacity="1"><g transform="translate(111.275036, 41.518704)"><g><path d="M 7.582031 0 L 12.25 0 L 12.25 -15.164062 L 7.582031 -15.164062 L 7.582031 -9.332031 L 5.25 -9.332031 L 5.25 -15.164062 L 0.582031 -15.164062 L 0.582031 0 L 5.25 0 L 5.25 -5.832031 L 7.582031 -5.832031 Z M 7.582031 0 "/></g></g></g><g fill="#ffffff" fill-opacity="1"><g transform="translate(125.750776, 41.518704)"><g><path d="M 0.582031 0 L 5.25 0 L 5.25 -11.664062 L 7.582031 -11.664062 L 7.582031 1.167969 L 12.25 0 L 12.25 -15.164062 L 0.582031 -15.164062 Z M 0.582031 0 "/></g></g></g><g fill="#ffffff" fill-opacity="1"><g transform="translate(140.226515, 41.518704)"><g><path d="M 12.25 -15.164062 L 0.582031 -15.164062 L 0.582031 0 L 12.25 0 Z M 7.582031 -11.664062 L 7.582031 -3.5 L 5.25 -3.5 L 5.25 -11.664062 Z M 7.582031 -11.664062 "/></g></g></g><g fill="#ffffff" fill-opacity="1"><g transform="translate(154.702255, 41.518704)"><g/></g></g><g fill="#ff00ff" fill-opacity="1"><g transform="translate(158.581504, 42.012835)"><g><path d="M 12.25 -11.664062 L 12.25 -15.164062 L 0.582031 -15.164062 L 0.582031 -5.832031 L 7.582031 -5.832031 L 7.582031 -3.5 L 5.25 -3.5 L 5.25 -4.664062 L 0.582031 -3.5 L 0.582031 0 L 12.25 0 L 12.25 -9.332031 L 5.25 -9.332031 L 5.25 -11.664062 L 7.582031 -11.664062 L 7.582031 -10.5 Z M 12.25 -11.664062 "/></g></g></g><g fill="#ff00ff" fill-opacity="1"><g transform="translate(173.057245, 42.012835)"><g><path d="M 7.582031 0 L 12.25 0 L 12.25 -15.164062 L 7.582031 -15.164062 L 7.582031 -9.332031 L 5.25 -9.332031 L 5.25 -15.164062 L 0.582031 -15.164062 L 0.582031 0 L 5.25 0 L 5.25 -5.832031 L 7.582031 -5.832031 Z M 7.582031 0 "/></g></g></g><g fill="#ff00ff" fill-opacity="1"><g transform="translate(187.532986, 42.012835)"><g><path d="M 12.25 -15.164062 L 0.582031 -15.164062 L 0.582031 0 L 12.25 0 Z M 7.582031 -11.664062 L 7.582031 -3.5 L 5.25 -3.5 L 5.25 -11.664062 Z M 7.582031 -11.664062 "/></g></g></g><g fill="#ff00ff" fill-opacity="1"><g transform="translate(202.008728, 42.012835)"><g><path d="M 12.25 -15.164062 L 0.582031 -15.164062 L 0.582031 1.167969 L 5.25 0 L 5.25 -5.832031 L 12.25 -5.832031 Z M 7.582031 -9.332031 L 5.25 -9.332031 L 5.25 -11.664062 L 7.582031 -11.664062 Z M 7.582031 -9.332031 "/></g></g></g><g fill="#00ffff" fill-opacity="1"><g transform="translate(157.627157, 41.024574)"><g><path d="M 12.25 -11.664062 L 12.25 -15.164062 L 0.582031 -15.164062 L 0.582031 -5.832031 L 7.582031 -5.832031 L 7.582031 -3.5 L 5.25 -3.5 L 5.25 -4.664062 L 0.582031 -3.5 L 0.582031 0 L 12.25 0 L 12.25 -9.332031 L 5.25 -9.332031 L 5.25 -11.664062 L 7.582031 -11.664062 L 7.582031 -10.5 Z M 12.25 -11.664062 "/></g></g></g><g fill="#00ffff" fill-opacity="1"><g transform="translate(172.102898, 41.024574)"><g><path d="M 7.582031 0 L 12.25 0 L 12.25 -15.164062 L 7.582031 -15.164062 L 7.582031 -9.332031 L 5.25 -9.332031 L 5.25 -15.164062 L 0.582031 -15.164062 L 0.582031 0 L 5.25 0 L 5.25 -5.832031 L 7.582031 -5.832031 Z M 7.582031 0 "/></g></g></g><g fill="#00ffff" fill-opacity="1"><g transform="translate(186.578639, 41.024574)"><g><path d="M 12.25 -15.164062 L 0.582031 -15.164062 L 0.582031 0 L 12.25 0 Z M 7.582031 -11.664062 L 7.582031 -3.5 L 5.25 -3.5 L 5.25 -11.664062 Z M 7.582031 -11.664062 "/></g></g></g><g fill="#00ffff" fill-opacity="1"><g transform="translate(201.054381, 41.024574)"><g><path d="M 12.25 -15.164062 L 0.582031 -15.164062 L 0.582031 1.167969 L 5.25 0 L 5.25 -5.832031 L 12.25 -5.832031 Z M 7.582031 -9.332031 L 5.25 -9.332031 L 5.25 -11.664062 L 7.582031 -11.664062 Z M 7.582031 -9.332031 "/></g></g></g><g fill="#292f33" fill-opacity="1"><g transform="translate(158.104329, 41.518704)"><g><path d="M 12.25 -11.664062 L 12.25 -15.164062 L 0.582031 -15.164062 L 0.582031 -5.832031 L 7.582031 -5.832031 L 7.582031 -3.5 L 5.25 -3.5 L 5.25 -4.664062 L 0.582031 -3.5 L 0.582031 0 L 12.25 0 L 12.25 -9.332031 L 5.25 -9.332031 L 5.25 -11.664062 L 7.582031 -11.664062 L 7.582031 -10.5 Z M 12.25 -11.664062 "/></g></g></g><g fill="#292f33" fill-opacity="1"><g transform="translate(172.58007, 41.518704)"><g><path d="M 7.582031 0 L 12.25 0 L 12.25 -15.164062 L 7.582031 -15.164062 L 7.582031 -9.332031 L 5.25 -9.332031 L 5.25 -15.164062 L 0.582031 -15.164062 L 0.582031 0 L 5.25 0 L 5.25 -5.832031 L 7.582031 -5.832031 Z M 7.582031 0 "/></g></g></g><g fill="#292f33" fill-opacity="1"><g transform="translate(187.055811, 41.518704)"><g><path d="M 12.25 -15.164062 L 0.582031 -15.164062 L 0.582031 0 L 12.25 0 Z M 7.582031 -11.664062 L 7.582031 -3.5 L 5.25 -3.5 L 5.25 -11.664062 Z M 7.582031 -11.664062 "/></g></g></g><g fill="#292f33" fill-opacity="1"><g transform="translate(201.531554, 41.518704)"><g><path d="M 12.25 -15.164062 L 0.582031 -15.164062 L 0.582031 1.167969 L 5.25 0 L 5.25 -5.832031 L 12.25 -5.832031 Z M 7.582031 -9.332031 L 5.25 -9.332031 L 5.25 -11.664062 L 7.582031 -11.664062 Z M 7.582031 -9.332031 "/></g></g></g><g fill="#292f33" fill-opacity="1"><g transform="translate(84.696146, 60.466493)"><g><path d="M 2.390625 -3.359375 L 5.515625 -3.359375 L 5.515625 0 L 4.734375 0 L 4.734375 -0.84375 L 4.609375 -0.84375 C 4.492188 -0.550781 4.289062 -0.3125 4 -0.125 C 3.71875 0.0507812 3.390625 0.140625 3.015625 0.140625 C 2.253906 0.140625 1.660156 -0.0976562 1.234375 -0.578125 C 0.804688 -1.066406 0.59375 -1.78125 0.59375 -2.71875 L 0.59375 -4.28125 C 0.59375 -5.1875 0.804688 -5.890625 1.234375 -6.390625 C 1.671875 -6.890625 2.273438 -7.140625 3.046875 -7.140625 C 3.453125 -7.140625 3.804688 -7.070312 4.109375 -6.9375 C 4.410156 -6.8125 4.664062 -6.632812 4.875 -6.40625 C 5.082031 -6.175781 5.238281 -5.90625 5.34375 -5.59375 C 5.457031 -5.28125 5.515625 -4.945312 5.515625 -4.59375 L 5.515625 -4.484375 L 4.671875 -4.484375 L 4.671875 -4.59375 C 4.671875 -4.820312 4.640625 -5.039062 4.578125 -5.25 C 4.515625 -5.46875 4.414062 -5.65625 4.28125 -5.8125 C 4.15625 -5.976562 3.988281 -6.109375 3.78125 -6.203125 C 3.582031 -6.304688 3.335938 -6.359375 3.046875 -6.359375 C 2.503906 -6.359375 2.097656 -6.160156 1.828125 -5.765625 C 1.566406 -5.378906 1.4375 -4.863281 1.4375 -4.21875 L 1.4375 -2.78125 C 1.4375 -2.09375 1.566406 -1.5625 1.828125 -1.1875 C 2.097656 -0.820312 2.507812 -0.640625 3.0625 -0.640625 C 3.5625 -0.640625 3.953125 -0.796875 4.234375 -1.109375 C 4.523438 -1.429688 4.671875 -1.878906 4.671875 -2.453125 L 4.671875 -2.578125 L 2.390625 -2.578125 Z M 2.390625 -3.359375 "/></g></g></g><g fill="#292f33" fill-opacity="1"><g transform="translate(91.501927, 60.466493)"><g><path d="M 4.46875 -0.84375 L 4.34375 -0.84375 C 4.1875 -0.507812 3.96875 -0.257812 3.6875 -0.09375 C 3.40625 0.0625 3.109375 0.140625 2.796875 0.140625 C 2.460938 0.140625 2.15625 0.0859375 1.875 -0.015625 C 1.59375 -0.128906 1.347656 -0.296875 1.140625 -0.515625 C 0.929688 -0.734375 0.765625 -1 0.640625 -1.3125 C 0.523438 -1.625 0.46875 -1.988281 0.46875 -2.40625 L 0.46875 -2.5625 C 0.46875 -2.96875 0.523438 -3.328125 0.640625 -3.640625 C 0.765625 -3.953125 0.929688 -4.21875 1.140625 -4.4375 C 1.347656 -4.65625 1.59375 -4.816406 1.875 -4.921875 C 2.15625 -5.035156 2.453125 -5.09375 2.765625 -5.09375 C 3.109375 -5.09375 3.414062 -5.019531 3.6875 -4.875 C 3.96875 -4.726562 4.1875 -4.5 4.34375 -4.1875 L 4.46875 -4.1875 L 4.46875 -4.953125 L 5.25 -4.953125 L 5.25 -1.015625 C 5.25 -0.816406 5.335938 -0.71875 5.515625 -0.71875 L 5.765625 -0.71875 L 5.765625 0 L 5.234375 0 C 5.015625 0 4.832031 -0.0703125 4.6875 -0.21875 C 4.539062 -0.363281 4.46875 -0.550781 4.46875 -0.78125 Z M 2.875 -0.59375 C 3.101562 -0.59375 3.316406 -0.632812 3.515625 -0.71875 C 3.710938 -0.8125 3.878906 -0.9375 4.015625 -1.09375 C 4.160156 -1.257812 4.269531 -1.453125 4.34375 -1.671875 C 4.425781 -1.898438 4.46875 -2.148438 4.46875 -2.421875 L 4.46875 -2.546875 C 4.46875 -2.804688 4.425781 -3.046875 4.34375 -3.265625 C 4.269531 -3.492188 4.160156 -3.6875 4.015625 -3.84375 C 3.867188 -4.007812 3.695312 -4.132812 3.5 -4.21875 C 3.300781 -4.3125 3.09375 -4.359375 2.875 -4.359375 C 2.632812 -4.359375 2.414062 -4.3125 2.21875 -4.21875 C 2.03125 -4.132812 1.863281 -4.015625 1.71875 -3.859375 C 1.582031 -3.703125 1.472656 -3.507812 1.390625 -3.28125 C 1.304688 -3.0625 1.265625 -2.820312 1.265625 -2.5625 L 1.265625 -2.40625 C 1.265625 -1.832031 1.410156 -1.382812 1.703125 -1.0625 C 2.003906 -0.75 2.394531 -0.59375 2.875 -0.59375 Z M 2.875 -0.59375 "/></g></g></g><g fill="#292f33" fill-opacity="1"><g transform="translate(98.307709, 60.466493)"><g><path d="M 5.640625 0 L 4.859375 0 L 4.859375 -3.5625 C 4.859375 -3.789062 4.804688 -3.976562 4.703125 -4.125 C 4.597656 -4.28125 4.425781 -4.359375 4.1875 -4.359375 C 3.96875 -4.359375 3.789062 -4.273438 3.65625 -4.109375 C 3.519531 -3.953125 3.453125 -3.703125 3.453125 -3.359375 L 3.453125 0 L 2.671875 0 L 2.671875 -3.59375 C 2.671875 -3.820312 2.609375 -4.003906 2.484375 -4.140625 C 2.367188 -4.285156 2.210938 -4.359375 2.015625 -4.359375 C 1.773438 -4.359375 1.585938 -4.269531 1.453125 -4.09375 C 1.328125 -3.925781 1.265625 -3.703125 1.265625 -3.421875 L 1.265625 0 L 0.484375 0 L 0.484375 -4.953125 L 1.265625 -4.953125 L 1.265625 -4.421875 L 1.375 -4.421875 C 1.46875 -4.648438 1.597656 -4.816406 1.765625 -4.921875 C 1.929688 -5.035156 2.125 -5.09375 2.34375 -5.09375 C 2.582031 -5.09375 2.78125 -5.03125 2.9375 -4.90625 C 3.101562 -4.78125 3.210938 -4.617188 3.265625 -4.421875 L 3.390625 -4.421875 C 3.617188 -4.867188 3.976562 -5.09375 4.46875 -5.09375 C 4.84375 -5.09375 5.128906 -4.972656 5.328125 -4.734375 C 5.535156 -4.503906 5.640625 -4.195312 5.640625 -3.8125 Z M 5.640625 0 "/></g></g></g><g fill="#292f33" fill-opacity="1"><g transform="translate(105.11349, 60.466493)"><g><path d="M 2.40625 -6.4375 C 2.40625 -6.632812 2.472656 -6.800781 2.609375 -6.9375 C 2.742188 -7.070312 2.910156 -7.140625 3.109375 -7.140625 C 3.304688 -7.140625 3.472656 -7.070312 3.609375 -6.9375 C 3.742188 -6.800781 3.8125 -6.632812 3.8125 -6.4375 C 3.8125 -6.25 3.742188 -6.082031 3.609375 -5.9375 C 3.472656 -5.800781 3.304688 -5.734375 3.109375 -5.734375 C 2.910156 -5.734375 2.742188 -5.800781 2.609375 -5.9375 C 2.472656 -6.082031 2.40625 -6.25 2.40625 -6.4375 Z M 0.984375 -0.71875 L 2.734375 -0.71875 L 2.734375 -4.234375 L 1.171875 -4.234375 L 1.171875 -4.953125 L 3.515625 -4.953125 L 3.515625 -0.71875 L 5.125 -0.71875 L 5.125 0 L 0.984375 0 Z M 0.984375 -0.71875 "/></g></g></g><g fill="#292f33" fill-opacity="1"><g transform="translate(111.919271, 60.466493)"><g><path d="M 1.65625 0 L 0.875 0 L 0.875 -4.953125 L 1.65625 -4.953125 L 1.65625 -4.125 L 1.765625 -4.125 C 2.078125 -4.769531 2.613281 -5.09375 3.375 -5.09375 C 3.945312 -5.09375 4.398438 -4.914062 4.734375 -4.5625 C 5.078125 -4.207031 5.25 -3.671875 5.25 -2.953125 L 5.25 0 L 4.46875 0 L 4.46875 -2.796875 C 4.46875 -3.316406 4.347656 -3.707031 4.109375 -3.96875 C 3.878906 -4.226562 3.566406 -4.359375 3.171875 -4.359375 C 2.691406 -4.359375 2.316406 -4.195312 2.046875 -3.875 C 1.785156 -3.550781 1.65625 -3.117188 1.65625 -2.578125 Z M 1.65625 0 "/></g></g></g><g fill="#292f33" fill-opacity="1"><g transform="translate(118.725052, 60.466493)"><g><path d="M 4.640625 -0.765625 L 4.515625 -0.765625 C 4.359375 -0.460938 4.140625 -0.234375 3.859375 -0.078125 C 3.585938 0.0664062 3.285156 0.140625 2.953125 0.140625 C 2.617188 0.140625 2.304688 0.0820312 2.015625 -0.03125 C 1.722656 -0.144531 1.460938 -0.304688 1.234375 -0.515625 C 1.015625 -0.734375 0.835938 -1 0.703125 -1.3125 C 0.578125 -1.632812 0.515625 -2 0.515625 -2.40625 L 0.515625 -2.5625 C 0.515625 -2.957031 0.582031 -3.3125 0.71875 -3.625 C 0.851562 -3.945312 1.03125 -4.21875 1.25 -4.4375 C 1.46875 -4.65625 1.722656 -4.816406 2.015625 -4.921875 C 2.304688 -5.035156 2.613281 -5.09375 2.9375 -5.09375 C 3.300781 -5.09375 3.617188 -5.015625 3.890625 -4.859375 C 4.160156 -4.703125 4.367188 -4.476562 4.515625 -4.1875 L 4.640625 -4.1875 L 4.640625 -4.953125 L 5.421875 -4.953125 L 5.421875 1.21875 C 5.421875 1.445312 5.347656 1.632812 5.203125 1.78125 C 5.054688 1.925781 4.875 2 4.65625 2 L 1.421875 2 L 1.421875 1.28125 L 4.375 1.28125 C 4.550781 1.28125 4.640625 1.179688 4.640625 0.984375 Z M 2.984375 -0.59375 C 3.210938 -0.59375 3.425781 -0.632812 3.625 -0.71875 C 3.832031 -0.8125 4.007812 -0.9375 4.15625 -1.09375 C 4.300781 -1.257812 4.414062 -1.453125 4.5 -1.671875 C 4.59375 -1.898438 4.640625 -2.148438 4.640625 -2.421875 L 4.640625 -2.546875 C 4.640625 -2.804688 4.59375 -3.046875 4.5 -3.265625 C 4.414062 -3.492188 4.300781 -3.6875 4.15625 -3.84375 C 4.007812 -4.007812 3.832031 -4.132812 3.625 -4.21875 C 3.414062 -4.3125 3.203125 -4.359375 2.984375 -4.359375 C 2.742188 -4.359375 2.519531 -4.3125 2.3125 -4.21875 C 2.113281 -4.132812 1.9375 -4.015625 1.78125 -3.859375 C 1.632812 -3.703125 1.519531 -3.507812 1.4375 -3.28125 C 1.351562 -3.0625 1.3125 -2.820312 1.3125 -2.5625 L 1.3125 -2.40625 C 1.3125 -2.125 1.351562 -1.867188 1.4375 -1.640625 C 1.519531 -1.421875 1.632812 -1.234375 1.78125 -1.078125 C 1.9375 -0.921875 2.113281 -0.800781 2.3125 -0.71875 C 2.519531 -0.632812 2.742188 -0.59375 2.984375 -0.59375 Z M 2.984375 -0.59375 "/></g></g></g><g fill="#292f33" fill-opacity="1"><g transform="translate(125.530833, 60.466493)"><g/></g></g><g fill="#292f33" fill-opacity="1"><g transform="translate(132.336615, 60.466493)"><g><path d="M 0.59375 -7 L 5.515625 -7 L 5.515625 -6.21875 L 3.484375 -6.21875 L 3.484375 0 L 2.640625 0 L 2.640625 -6.21875 L 0.59375 -6.21875 Z M 0.59375 -7 "/></g></g></g><g fill="#292f33" fill-opacity="1"><g transform="translate(139.142396, 60.466493)"><g><path d="M 1.4375 -2.234375 C 1.457031 -1.742188 1.609375 -1.347656 1.890625 -1.046875 C 2.179688 -0.742188 2.582031 -0.59375 3.09375 -0.59375 C 3.332031 -0.59375 3.535156 -0.617188 3.703125 -0.671875 C 3.878906 -0.734375 4.03125 -0.8125 4.15625 -0.90625 C 4.28125 -1 4.378906 -1.101562 4.453125 -1.21875 C 4.523438 -1.34375 4.585938 -1.476562 4.640625 -1.625 L 5.375 -1.421875 C 5.238281 -0.960938 4.984375 -0.585938 4.609375 -0.296875 C 4.234375 -0.00390625 3.722656 0.140625 3.078125 0.140625 C 2.722656 0.140625 2.394531 0.078125 2.09375 -0.046875 C 1.800781 -0.171875 1.546875 -0.34375 1.328125 -0.5625 C 1.117188 -0.789062 0.953125 -1.0625 0.828125 -1.375 C 0.710938 -1.6875 0.65625 -2.035156 0.65625 -2.421875 L 0.65625 -2.65625 C 0.65625 -3.007812 0.71875 -3.332031 0.84375 -3.625 C 0.96875 -3.925781 1.140625 -4.1875 1.359375 -4.40625 C 1.578125 -4.625 1.832031 -4.789062 2.125 -4.90625 C 2.425781 -5.03125 2.75 -5.09375 3.09375 -5.09375 C 3.5 -5.09375 3.847656 -5.019531 4.140625 -4.875 C 4.441406 -4.726562 4.6875 -4.539062 4.875 -4.3125 C 5.070312 -4.09375 5.210938 -3.851562 5.296875 -3.59375 C 5.390625 -3.332031 5.4375 -3.09375 5.4375 -2.875 L 5.4375 -2.234375 Z M 3.09375 -4.359375 C 2.875 -4.359375 2.671875 -4.320312 2.484375 -4.25 C 2.296875 -4.1875 2.128906 -4.085938 1.984375 -3.953125 C 1.835938 -3.828125 1.71875 -3.679688 1.625 -3.515625 C 1.539062 -3.347656 1.484375 -3.160156 1.453125 -2.953125 L 4.65625 -2.953125 C 4.644531 -3.171875 4.59375 -3.363281 4.5 -3.53125 C 4.414062 -3.707031 4.300781 -3.851562 4.15625 -3.96875 C 4.007812 -4.09375 3.84375 -4.1875 3.65625 -4.25 C 3.476562 -4.320312 3.289062 -4.359375 3.09375 -4.359375 Z M 3.09375 -4.359375 "/></g></g></g><g fill="#292f33" fill-opacity="1"><g transform="translate(145.948174, 60.466493)"><g><path d="M 5.515625 -1.765625 C 5.460938 -1.484375 5.367188 -1.226562 5.234375 -1 C 5.109375 -0.769531 4.941406 -0.566406 4.734375 -0.390625 C 4.535156 -0.222656 4.300781 -0.09375 4.03125 0 C 3.769531 0.09375 3.476562 0.140625 3.15625 0.140625 C 2.800781 0.140625 2.46875 0.0820312 2.15625 -0.03125 C 1.851562 -0.144531 1.582031 -0.304688 1.34375 -0.515625 C 1.113281 -0.734375 0.929688 -1 0.796875 -1.3125 C 0.660156 -1.632812 0.59375 -2 0.59375 -2.40625 L 0.59375 -2.515625 C 0.59375 -2.921875 0.660156 -3.28125 0.796875 -3.59375 C 0.929688 -3.914062 1.113281 -4.1875 1.34375 -4.40625 C 1.582031 -4.625 1.851562 -4.789062 2.15625 -4.90625 C 2.46875 -5.03125 2.800781 -5.09375 3.15625 -5.09375 C 3.46875 -5.09375 3.753906 -5.046875 4.015625 -4.953125 C 4.285156 -4.859375 4.519531 -4.726562 4.71875 -4.5625 C 4.925781 -4.394531 5.09375 -4.191406 5.21875 -3.953125 C 5.351562 -3.722656 5.441406 -3.472656 5.484375 -3.203125 L 4.703125 -3.015625 C 4.691406 -3.191406 4.644531 -3.359375 4.5625 -3.515625 C 4.488281 -3.679688 4.382812 -3.828125 4.25 -3.953125 C 4.125 -4.078125 3.96875 -4.175781 3.78125 -4.25 C 3.59375 -4.320312 3.375 -4.359375 3.125 -4.359375 C 2.882812 -4.359375 2.660156 -4.3125 2.453125 -4.21875 C 2.242188 -4.132812 2.054688 -4.007812 1.890625 -3.84375 C 1.734375 -3.675781 1.609375 -3.476562 1.515625 -3.25 C 1.429688 -3.03125 1.390625 -2.785156 1.390625 -2.515625 L 1.390625 -2.40625 C 1.390625 -2.125 1.429688 -1.867188 1.515625 -1.640625 C 1.609375 -1.421875 1.734375 -1.234375 1.890625 -1.078125 C 2.054688 -0.921875 2.242188 -0.800781 2.453125 -0.71875 C 2.671875 -0.632812 2.90625 -0.59375 3.15625 -0.59375 C 3.394531 -0.59375 3.601562 -0.628906 3.78125 -0.703125 C 3.96875 -0.785156 4.125 -0.890625 4.25 -1.015625 C 4.382812 -1.140625 4.488281 -1.28125 4.5625 -1.4375 C 4.644531 -1.601562 4.703125 -1.769531 4.734375 -1.9375 Z M 5.515625 -1.765625 "/></g></g></g><g fill="#292f33" fill-opacity="1"><g transform="translate(152.753951, 60.466493)"><g><path d="M 1.65625 0 L 0.875 0 L 0.875 -7 L 1.65625 -7 L 1.65625 -4.0625 L 1.765625 -4.0625 C 1.921875 -4.382812 2.132812 -4.632812 2.40625 -4.8125 C 2.6875 -5 3.03125 -5.09375 3.4375 -5.09375 C 3.96875 -5.09375 4.398438 -4.914062 4.734375 -4.5625 C 5.078125 -4.207031 5.25 -3.671875 5.25 -2.953125 L 5.25 0 L 4.46875 0 L 4.46875 -2.796875 C 4.46875 -3.316406 4.347656 -3.707031 4.109375 -3.96875 C 3.878906 -4.226562 3.566406 -4.359375 3.171875 -4.359375 C 2.691406 -4.359375 2.316406 -4.195312 2.046875 -3.875 C 1.785156 -3.550781 1.65625 -3.117188 1.65625 -2.578125 Z M 1.65625 0 "/></g></g></g><g fill="#292f33" fill-opacity="1"><g transform="translate(159.559729, 60.466493)"><g/></g></g><g fill="#292f33" fill-opacity="1"><g transform="translate(166.365507, 60.466493)"><g><path d="M 4.703125 -4.984375 C 4.703125 -5.203125 4.65625 -5.398438 4.5625 -5.578125 C 4.476562 -5.753906 4.359375 -5.898438 4.203125 -6.015625 C 4.054688 -6.128906 3.878906 -6.210938 3.671875 -6.265625 C 3.472656 -6.328125 3.265625 -6.359375 3.046875 -6.359375 C 2.859375 -6.359375 2.675781 -6.332031 2.5 -6.28125 C 2.320312 -6.226562 2.164062 -6.15625 2.03125 -6.0625 C 1.894531 -5.976562 1.785156 -5.863281 1.703125 -5.71875 C 1.628906 -5.582031 1.59375 -5.425781 1.59375 -5.25 L 1.59375 -5.1875 C 1.59375 -5 1.628906 -4.832031 1.703125 -4.6875 C 1.785156 -4.550781 1.90625 -4.4375 2.0625 -4.34375 C 2.21875 -4.25 2.410156 -4.171875 2.640625 -4.109375 C 2.878906 -4.046875 3.15625 -3.988281 3.46875 -3.9375 C 4.195312 -3.820312 4.734375 -3.601562 5.078125 -3.28125 C 5.429688 -2.96875 5.609375 -2.546875 5.609375 -2.015625 L 5.609375 -1.90625 C 5.609375 -1.601562 5.554688 -1.328125 5.453125 -1.078125 C 5.347656 -0.828125 5.191406 -0.609375 4.984375 -0.421875 C 4.785156 -0.242188 4.535156 -0.101562 4.234375 0 C 3.941406 0.09375 3.597656 0.140625 3.203125 0.140625 C 2.753906 0.140625 2.359375 0.078125 2.015625 -0.046875 C 1.671875 -0.179688 1.382812 -0.363281 1.15625 -0.59375 C 0.925781 -0.820312 0.75 -1.09375 0.625 -1.40625 C 0.507812 -1.71875 0.453125 -2.054688 0.453125 -2.421875 L 0.453125 -2.71875 L 1.296875 -2.71875 L 1.296875 -2.484375 C 1.296875 -1.867188 1.460938 -1.40625 1.796875 -1.09375 C 2.128906 -0.789062 2.597656 -0.640625 3.203125 -0.640625 C 3.722656 -0.640625 4.113281 -0.753906 4.375 -0.984375 C 4.632812 -1.210938 4.765625 -1.519531 4.765625 -1.90625 L 4.765625 -1.953125 C 4.765625 -2.328125 4.628906 -2.609375 4.359375 -2.796875 C 4.085938 -2.992188 3.648438 -3.132812 3.046875 -3.21875 C 2.691406 -3.269531 2.375 -3.34375 2.09375 -3.4375 C 1.8125 -3.53125 1.566406 -3.65625 1.359375 -3.8125 C 1.160156 -3.96875 1.007812 -4.15625 0.90625 -4.375 C 0.800781 -4.59375 0.75 -4.851562 0.75 -5.15625 L 0.75 -5.28125 C 0.75 -5.550781 0.804688 -5.800781 0.921875 -6.03125 C 1.035156 -6.257812 1.191406 -6.457031 1.390625 -6.625 C 1.597656 -6.789062 1.84375 -6.914062 2.125 -7 C 2.40625 -7.09375 2.71875 -7.140625 3.0625 -7.140625 C 3.457031 -7.140625 3.804688 -7.082031 4.109375 -6.96875 C 4.421875 -6.851562 4.679688 -6.703125 4.890625 -6.515625 C 5.109375 -6.328125 5.269531 -6.101562 5.375 -5.84375 C 5.488281 -5.582031 5.546875 -5.316406 5.546875 -5.046875 L 5.546875 -4.625 L 4.703125 -4.625 Z M 4.703125 -4.984375 "/></g></g></g><g fill="#292f33" fill-opacity="1"><g transform="translate(173.171285, 60.466493)"><g><path d="M 1.65625 0 L 0.875 0 L 0.875 -7 L 1.65625 -7 L 1.65625 -4.0625 L 1.765625 -4.0625 C 1.921875 -4.382812 2.132812 -4.632812 2.40625 -4.8125 C 2.6875 -5 3.03125 -5.09375 3.4375 -5.09375 C 3.96875 -5.09375 4.398438 -4.914062 4.734375 -4.5625 C 5.078125 -4.207031 5.25 -3.671875 5.25 -2.953125 L 5.25 0 L 4.46875 0 L 4.46875 -2.796875 C 4.46875 -3.316406 4.347656 -3.707031 4.109375 -3.96875 C 3.878906 -4.226562 3.566406 -4.359375 3.171875 -4.359375 C 2.691406 -4.359375 2.316406 -4.195312 2.046875 -3.875 C 1.785156 -3.550781 1.65625 -3.117188 1.65625 -2.578125 Z M 1.65625 0 "/></g></g></g><g fill="#292f33" fill-opacity="1"><g transform="translate(179.977063, 60.466493)"><g><path d="M 5.546875 -2.421875 C 5.546875 -2.003906 5.476562 -1.632812 5.34375 -1.3125 C 5.207031 -1 5.023438 -0.734375 4.796875 -0.515625 C 4.566406 -0.304688 4.300781 -0.144531 4 -0.03125 C 3.695312 0.0820312 3.382812 0.140625 3.0625 0.140625 C 2.726562 0.140625 2.410156 0.0820312 2.109375 -0.03125 C 1.804688 -0.144531 1.539062 -0.304688 1.3125 -0.515625 C 1.09375 -0.734375 0.910156 -1 0.765625 -1.3125 C 0.628906 -1.632812 0.5625 -2.003906 0.5625 -2.421875 L 0.5625 -2.546875 C 0.5625 -2.953125 0.628906 -3.3125 0.765625 -3.625 C 0.910156 -3.9375 1.097656 -4.203125 1.328125 -4.421875 C 1.554688 -4.648438 1.816406 -4.816406 2.109375 -4.921875 C 2.410156 -5.035156 2.726562 -5.09375 3.0625 -5.09375 C 3.382812 -5.09375 3.695312 -5.035156 4 -4.921875 C 4.300781 -4.816406 4.566406 -4.648438 4.796875 -4.421875 C 5.023438 -4.203125 5.207031 -3.9375 5.34375 -3.625 C 5.476562 -3.3125 5.546875 -2.953125 5.546875 -2.546875 Z M 3.0625 -0.59375 C 3.300781 -0.59375 3.519531 -0.632812 3.71875 -0.71875 C 3.925781 -0.800781 4.101562 -0.921875 4.25 -1.078125 C 4.40625 -1.242188 4.523438 -1.4375 4.609375 -1.65625 C 4.703125 -1.882812 4.75 -2.140625 4.75 -2.421875 L 4.75 -2.546875 C 4.75 -2.804688 4.703125 -3.046875 4.609375 -3.265625 C 4.523438 -3.492188 4.40625 -3.6875 4.25 -3.84375 C 4.101562 -4.007812 3.925781 -4.132812 3.71875 -4.21875 C 3.507812 -4.3125 3.289062 -4.359375 3.0625 -4.359375 C 2.820312 -4.359375 2.597656 -4.3125 2.390625 -4.21875 C 2.191406 -4.132812 2.015625 -4.007812 1.859375 -3.84375 C 1.703125 -3.6875 1.582031 -3.492188 1.5 -3.265625 C 1.414062 -3.046875 1.375 -2.804688 1.375 -2.546875 L 1.375 -2.421875 C 1.375 -2.140625 1.414062 -1.882812 1.5 -1.65625 C 1.582031 -1.4375 1.703125 -1.242188 1.859375 -1.078125 C 2.015625 -0.921875 2.191406 -0.800781 2.390625 -0.71875 C 2.597656 -0.632812 2.820312 -0.59375 3.0625 -0.59375 Z M 3.0625 -0.59375 "/></g></g></g><g fill="#292f33" fill-opacity="1"><g transform="translate(186.78284, 60.466493)"><g><path d="M 1.46875 2 L 0.6875 2 L 0.6875 -4.953125 L 1.46875 -4.953125 L 1.46875 -4.1875 L 1.59375 -4.1875 C 1.757812 -4.476562 1.992188 -4.703125 2.296875 -4.859375 C 2.609375 -5.015625 2.945312 -5.09375 3.3125 -5.09375 C 3.613281 -5.09375 3.898438 -5.035156 4.171875 -4.921875 C 4.453125 -4.816406 4.695312 -4.65625 4.90625 -4.4375 C 5.113281 -4.226562 5.28125 -3.96875 5.40625 -3.65625 C 5.53125 -3.34375 5.59375 -2.984375 5.59375 -2.578125 L 5.59375 -2.375 C 5.59375 -1.96875 5.53125 -1.609375 5.40625 -1.296875 C 5.289062 -0.984375 5.125 -0.71875 4.90625 -0.5 C 4.695312 -0.289062 4.453125 -0.128906 4.171875 -0.015625 C 3.898438 0.0859375 3.609375 0.140625 3.296875 0.140625 C 3.128906 0.140625 2.960938 0.117188 2.796875 0.078125 C 2.628906 0.046875 2.46875 -0.00390625 2.3125 -0.078125 C 2.164062 -0.160156 2.03125 -0.253906 1.90625 -0.359375 C 1.78125 -0.472656 1.675781 -0.609375 1.59375 -0.765625 L 1.46875 -0.765625 Z M 3.125 -0.59375 C 3.363281 -0.59375 3.582031 -0.632812 3.78125 -0.71875 C 3.988281 -0.800781 4.164062 -0.921875 4.3125 -1.078125 C 4.46875 -1.234375 4.585938 -1.421875 4.671875 -1.640625 C 4.753906 -1.859375 4.796875 -2.101562 4.796875 -2.375 L 4.796875 -2.578125 C 4.796875 -2.847656 4.753906 -3.085938 4.671875 -3.296875 C 4.585938 -3.515625 4.46875 -3.703125 4.3125 -3.859375 C 4.164062 -4.015625 3.988281 -4.132812 3.78125 -4.21875 C 3.582031 -4.3125 3.363281 -4.359375 3.125 -4.359375 C 2.894531 -4.359375 2.679688 -4.3125 2.484375 -4.21875 C 2.285156 -4.132812 2.109375 -4.007812 1.953125 -3.84375 C 1.804688 -3.6875 1.6875 -3.492188 1.59375 -3.265625 C 1.507812 -3.046875 1.46875 -2.804688 1.46875 -2.546875 L 1.46875 -2.421875 C 1.46875 -2.148438 1.507812 -1.898438 1.59375 -1.671875 C 1.6875 -1.453125 1.804688 -1.257812 1.953125 -1.09375 C 2.109375 -0.9375 2.285156 -0.8125 2.484375 -0.71875 C 2.679688 -0.632812 2.894531 -0.59375 3.125 -0.59375 Z M 3.125 -0.59375 "/></g></g></g><g clip-path="url(#743ef0071c)"><path stroke-linecap="round" transform="matrix(-0.203398, -0.721477, 0.721477, -0.203398, 4.686197, 28.184716)" fill="none" stroke-linejoin="miter" d="M 1.998644 2.000034 L 18.712 2.001454 " stroke="#292f33" stroke-width="4" stroke-opacity="1" stroke-miterlimit="4"/></g><g clip-path="url(#cc1e001970)"><path stroke-linecap="round" transform="matrix(-0.71637, 0.220713, -0.220713, -0.71637, 15.78083, 10.991086)" fill="none" stroke-linejoin="miter" d="M 2.000617 1.999873 L 18.582808 1.999529 " stroke="#292f33" stroke-width="4" stroke-opacity="1" stroke-miterlimit="4"/></g><g clip-path="url(#2a613e59f7)"><path stroke-linecap="round" transform="matrix(0.0861857, 0.744629, -0.744629, 0.0861857, 58.336256, 49.550339)" fill="none" stroke-linejoin="miter" d="M 1.998659 1.999628 L 18.586214 1.999525 " stroke="#292f33" stroke-width="4" stroke-opacity="1" stroke-miterlimit="4"/></g><g clip-path="url(#5d7694488c)"><path stroke-linecap="round" transform="matrix(0.744629, -0.0861857, 0.0861857, 0.744629, 43.997551, 63.893702)" fill="none" stroke-linejoin="miter" d="M 2.00124 2.000612 L 18.583619 1.99991 " stroke="#292f33" stroke-width="4" stroke-opacity="1" stroke-miterlimit="4"/></g></svg>